<svg xmlns="http://www.w3.org/2000/svg" viewBox="0 0 240 70" width="240" height="70">
  <!-- Rope / cable lines top -->
  <path d="M0,14 Q60,8 120,10 Q180,8 240,14" fill="none" stroke="#7a5810" stroke-width="3" stroke-linecap="round"/>

  <!-- Rope hangers (verticals) -->
  <line x1="20"  y1="14" x2="20"  y2="32" stroke="#7a5810" stroke-width="2"/>
  <line x1="50"  y1="11" x2="50"  y2="32" stroke="#7a5810" stroke-width="2"/>
  <line x1="80"  y1="10" x2="80"  y2="32" stroke="#7a5810" stroke-width="2"/>
  <line x1="110" y1="10" x2="110" y2="32" stroke="#7a5810" stroke-width="2"/>
  <line x1="140" y1="10" x2="140" y2="32" stroke="#7a5810" stroke-width="2"/>
  <line x1="170" y1="11" x2="170" y2="32" stroke="#7a5810" stroke-width="2"/>
  <line x1="200" y1="12" x2="200" y2="32" stroke="#7a5810" stroke-width="2"/>
  <line x1="220" y1="14" x2="220" y2="32" stroke="#7a5810" stroke-width="2"/>

  <!-- Bridge deck planks -->
  <rect x="0"   y="30" width="22" height="14" rx="2" fill="#c4923a" stroke="#1a1209" stroke-width="2.5"/>
  <rect x="24"  y="30" width="22" height="14" rx="2" fill="#c4923a" stroke="#1a1209" stroke-width="2.5"/>
  <rect x="48"  y="30" width="22" height="14" rx="2" fill="#c4923a" stroke="#1a1209" stroke-width="2.5"/>
  <rect x="72"  y="30" width="22" height="14" rx="2" fill="#c4923a" stroke="#1a1209" stroke-width="2.5"/>
  <rect x="96"  y="30" width="22" height="14" rx="2" fill="#c4923a" stroke="#1a1209" stroke-width="2.5"/>
  <rect x="120" y="30" width="22" height="14" rx="2" fill="#c4923a" stroke="#1a1209" stroke-width="2.5"/>
  <rect x="144" y="30" width="22" height="14" rx="2" fill="#c4923a" stroke="#1a1209" stroke-width="2.5"/>
  <rect x="168" y="30" width="22" height="14" rx="2" fill="#c4923a" stroke="#1a1209" stroke-width="2.5"/>
  <rect x="192" y="30" width="22" height="14" rx="2" fill="#c4923a" stroke="#1a1209" stroke-width="2.5"/>
  <rect x="216" y="30" width="24" height="14" rx="2" fill="#c4923a" stroke="#1a1209" stroke-width="2.5"/>

  <!-- Plank grain lines -->
  <line x1="6"   y1="30" x2="6"   y2="44" stroke="#a07820" stroke-width="1"/>
  <line x1="30"  y1="30" x2="30"  y2="44" stroke="#a07820" stroke-width="1"/>
  <line x1="54"  y1="30" x2="54"  y2="44" stroke="#a07820" stroke-width="1"/>
  <line x1="78"  y1="30" x2="78"  y2="44" stroke="#a07820" stroke-width="1"/>
  <line x1="102" y1="30" x2="102" y2="44" stroke="#a07820" stroke-width="1"/>
  <line x1="126" y1="30" x2="126" y2="44" stroke="#a07820" stroke-width="1"/>
  <line x1="150" y1="30" x2="150" y2="44" stroke="#a07820" stroke-width="1"/>
  <line x1="174" y1="30" x2="174" y2="44" stroke="#a07820" stroke-width="1"/>
  <line x1="198" y1="30" x2="198" y2="44" stroke="#a07820" stroke-width="1"/>
  <line x1="222" y1="30" x2="222" y2="44" stroke="#a07820" stroke-width="1"/>

  <!-- Rope / cable lines bottom -->
  <path d="M0,48 Q60,42 120,44 Q180,42 240,48" fill="none" stroke="#7a5810" stroke-width="3" stroke-linecap="round"/>
</svg>
